<svg width="298" height="149" viewBox="0 0 298 149" fill="none" xmlns="http://www.w3.org/2000/svg">
<path fill-rule="evenodd" clip-rule="evenodd" d="M178.894 101.079C164.491 111.715 143.547 117.395 125.537 117.395C100.287 117.395 77.552 108.057 60.3549 92.5215C59.004 91.2997 60.2134 89.6359 61.835 90.5845C80.3954 101.387 103.344 107.881 127.047 107.881C143.035 107.881 160.622 104.573 176.793 97.7092C179.237 96.6712 181.278 99.3085 178.889 101.082L178.894 101.079ZM184.894 94.2176C183.056 91.8585 172.726 93.1051 168.052 93.6564C166.637 93.8302 166.421 92.596 167.695 91.7095C175.939 85.9034 189.473 87.5797 191.055 89.5241C192.637 91.4686 190.645 105.045 182.895 111.522C181.703 112.515 180.571 111.986 181.1 110.667C182.838 106.321 186.742 96.5818 184.894 94.2152" fill="#FF9900"/>
<path fill-rule="evenodd" clip-rule="evenodd" d="M168.377 50.7271V45.0849C168.372 44.896 168.406 44.708 168.476 44.5325C168.546 44.3569 168.651 44.1974 168.784 44.0638C168.918 43.9302 169.077 43.8252 169.253 43.7552C169.428 43.6853 169.616 43.6519 169.805 43.657H195.066C195.875 43.657 196.526 44.2406 196.526 45.0849V49.915C196.516 50.7246 195.831 51.785 194.624 53.4612L181.537 72.1508C186.404 72.0316 191.535 72.7567 195.945 75.2425C196.938 75.8038 197.187 76.6257 197.286 77.4378V83.4599C197.286 84.2794 196.377 85.2429 195.423 84.7462C187.651 80.6736 177.327 80.2266 168.735 84.7885C167.858 85.2653 166.94 84.3117 166.94 83.4922V77.773C166.94 76.8542 166.95 75.2897 167.868 73.8916L183.034 52.1426H169.86C169.05 52.1426 168.4 51.5714 168.4 50.7271H168.377ZM76.2234 85.9358H68.54C67.8049 85.8811 67.2238 85.3298 67.1667 84.627V45.1818C67.1667 44.3921 67.8273 43.7663 68.6468 43.7663H75.8137C76.5587 43.7986 77.1547 44.3722 77.2093 45.0824V50.2378H77.3509C79.2208 45.2538 82.7347 42.9294 87.468 42.9294C92.2782 42.9294 95.283 45.2538 97.446 50.2378C99.3085 45.2538 103.53 42.9294 108.062 42.9294C111.283 42.9294 114.807 44.258 116.958 47.2429C119.391 50.5607 118.895 55.3833 118.895 59.6099L118.877 84.5078C118.877 85.2975 118.217 85.9358 117.397 85.9358H109.699C108.954 85.8811 108.316 85.2653 108.316 84.5078V63.5733C108.316 61.9095 108.465 57.7574 108.1 56.1805C107.528 53.5332 105.807 52.7857 103.58 52.7857C101.717 52.7857 99.7754 54.0274 98.9857 56.019C98.196 58.0107 98.273 61.3383 98.273 63.5758V84.4855C98.273 85.2752 97.6124 85.9134 96.7929 85.9134H89.0946C88.3173 85.8588 87.7113 85.2429 87.7113 84.4855L87.7014 63.5758C87.7014 59.1754 88.4265 52.6988 82.9657 52.6988C77.4428 52.6988 77.6588 59.0115 77.6588 63.5758V84.4855C77.6588 85.2752 76.9982 85.9134 76.1787 85.9134L76.2234 85.9358ZM218.275 42.9617C229.679 42.9617 235.852 52.7559 235.852 65.2074C235.852 77.2391 229.03 86.7826 218.275 86.7826C207.1 86.7826 200.979 76.9883 200.979 64.7852C200.979 52.5051 207.152 42.9319 218.275 42.9319V42.9617ZM218.34 50.9853C212.678 50.9853 212.318 58.7035 212.318 63.5137C212.318 68.324 212.243 78.6248 218.273 78.6248C224.228 78.6248 224.511 70.323 224.511 65.2645C224.511 61.9368 224.369 57.956 223.368 54.7997C222.504 52.0532 220.786 50.9828 218.342 50.9828L218.34 50.9853ZM250.643 85.9358H242.989C242.244 85.8811 241.606 85.2653 241.606 84.5078L241.596 45.0526C241.661 44.3275 242.299 43.7663 243.076 43.7663H250.203C250.874 43.7986 251.425 44.253 251.577 44.8689V50.9034H251.718C253.869 45.5096 256.883 42.9368 262.193 42.9368C265.669 42.9368 269.002 44.1785 271.165 47.5856C273.152 50.7395 273.152 56.0488 273.152 59.8657V84.6991C273.065 85.3944 272.427 85.9407 271.672 85.9407H263.978C263.276 85.8861 262.692 85.3696 262.617 84.6991V63.2753C262.617 58.9618 263.114 52.6467 257.807 52.6467C255.937 52.6467 254.219 53.9008 253.337 55.8005C252.257 58.2093 252.115 60.6107 252.115 63.2704V84.5128C252.106 85.3025 251.435 85.9407 250.613 85.9407L250.643 85.9358ZM148.238 67.0674C148.238 70.0623 148.312 72.5307 146.797 75.2177C145.575 77.3782 143.631 78.7093 141.478 78.7093C138.528 78.7093 136.797 76.4618 136.797 73.1416C136.797 66.5906 142.668 65.4011 148.233 65.4011V67.0649L148.238 67.0674ZM155.981 85.7992C155.472 86.2536 154.739 86.2859 154.168 85.9829C151.617 83.8647 151.153 82.8788 149.757 80.8598C145.541 85.161 142.548 86.4473 137.087 86.4473C130.613 86.4473 125.585 82.4591 125.585 74.4702C125.585 68.2321 128.957 63.9856 133.78 61.9095C137.952 60.0718 143.778 59.749 148.233 59.2399V58.2466C148.233 56.4189 148.374 54.2584 147.289 52.679C146.36 51.2635 144.565 50.6799 142.975 50.6799C140.045 50.6799 137.438 52.1823 136.802 55.2989C136.673 55.9942 136.164 56.6722 135.461 56.7044L128.011 55.9048C127.385 55.7633 126.682 55.2591 126.869 54.2906C128.577 45.2513 136.752 42.5296 144.053 42.5296C147.793 42.5296 152.68 43.5229 155.631 46.3539C159.37 49.8455 159.013 54.5042 159.013 59.5752V71.5523C159.013 75.1531 160.503 76.73 161.911 78.6795C162.398 79.3748 162.507 80.2042 161.879 80.7232L156.003 85.8488L155.993 85.824L155.981 85.7992ZM47.4813 67.0922C47.4813 70.0871 47.5558 72.5556 46.041 75.2425C44.8192 77.403 42.8872 78.7341 40.7217 78.7341C37.7715 78.7341 36.053 76.4867 36.053 73.1665C36.053 66.6154 41.9236 65.4259 47.4764 65.4259V67.0897L47.4813 67.0922ZM55.2244 85.824C54.7153 86.2785 53.9827 86.3107 53.4115 86.0078C50.8612 83.8895 50.4315 82.9036 49.0011 80.8847C44.7844 85.1858 41.7995 86.4722 36.3312 86.4722C29.8695 86.4746 24.8333 82.4864 24.8333 74.5C24.8333 68.2619 28.2156 64.0154 33.0283 61.9393C37.2003 60.1016 43.0262 59.7788 47.4813 59.2697V58.2764C47.4813 56.4487 47.6229 54.2882 46.5526 52.7088C45.6089 51.2933 43.8209 50.7097 42.239 50.7097C39.3087 50.7097 36.6937 52.2121 36.0307 55.3287C35.9016 56.024 35.3925 56.702 34.7021 56.7342L27.2422 55.9346C26.6164 55.7931 25.926 55.2889 26.0998 54.3204C27.8183 45.2811 35.9835 42.5594 43.2845 42.5594C47.0244 42.5594 51.9116 43.5527 54.8618 46.3837C58.6017 49.8753 58.2441 54.534 58.2441 59.605V71.5821C58.2441 75.1829 59.7341 76.7598 61.1422 78.7093C61.6388 79.4046 61.7481 80.234 61.1173 80.7531L55.2567 85.8488L55.2318 85.824" fill="#E5E5E5"/>
</svg>
